<?xml version="1.0" encoding="utf-8"?>
<!-- Generator: Adobe Illustrator 17.1.0, SVG Export Plug-In . SVG Version: 6.00 Build 0)  -->
<!DOCTYPE svg PUBLIC "-//W3C//DTD SVG 1.1//EN" "http://www.w3.org/Graphics/SVG/1.1/DTD/svg11.dtd">
<svg version="1.1" xmlns="http://www.w3.org/2000/svg" xmlns:xlink="http://www.w3.org/1999/xlink" x="0px" y="0px"
	 viewBox="0 0 49.7 76.5" enable-background="new 0 0 49.7 76.5" xml:space="preserve">
<g id="Layer_1">
</g>
<g id="Layer_2">
	<g>
		<path d="M42.5,27.6c-1.3,3.6-6.1,7.2-11.8,11c0.2-1.6,0.4-3.3,0.6-5C37.1,28.6,44,20.9,47.9,9.9c1-2.7,2-7.8-2.6-9.4
			C40.5-1.1,33.8,0.8,30.1,10c-4.3,10.7-5.6,19.9-6.6,28.4c-0.8,0.5-1.4,0.8-1.9,1c-0.4,0.2-0.9,0-1-0.4c-0.9-2.4,2-15.9,2.9-19
			c-7.4-0.3-6.4,0.2-7.3,3.5c-0.6-2.2-2.1-3.7-4.6-3.5c-3.5,0.3-6.7,2.3-9.1,5.8c-1.9,2.8-2.8,5.9-2.5,9c0.4,4.4,3.5,6.9,7.1,6.6
			c2.5-0.2,4.3-1.6,6.5-4.6c0,0.1,0,0.3,0,0.5c0.2,2.4,2.2,4.2,4.8,4c1.5-0.1,3.1-0.6,5-1.8c-0.2,1.4-0.3,2.8-0.5,4.1
			C15.4,48.5,8.1,53.8,5.5,59.8C0.9,71.1,6,74.6,9.9,76c3.8,1.4,11.5,0.5,15.4-9.3c3.5-8.8,4.2-17.5,5.2-26.7
			C36.5,36.1,41.4,32.2,42.5,27.6z M13.9,34.1c-1.6,4.1-3.9,5.9-5.7,6c-1.3,0.1-2.2-0.8-2.3-2.5c-0.2-2.3,0.4-7.4,2.5-12.4
			c1.2-2.8,2.3-4.2,4.1-4.4c1.7-0.1,3.1,1.5,3.3,3.8C15.9,26.2,15.3,30.2,13.9,34.1z M36.8,10.5c3.4-7.6,6.7-9.7,8.5-9.2
			c3.4,1,2.5,6,1.7,8.2c-2.5,7.7-8.3,16-15.6,22.6C32.4,25.4,33.8,18.3,36.8,10.5z M18.3,64.5c-2.5,6.1-5.2,11.3-9.2,9.7
			c-5.3-2.2-4.9-8-2.6-13.8c2.5-6.2,9.2-11,16.2-15.5C22,51.6,21,57.9,18.3,64.5z"/>
		<circle cx="45.7" cy="37.4" r="3.9"/>
	</g>
</g>
</svg>
